<svg width="795" height="508" xmlns="http://www.w3.org/2000/svg" xmlns:xlink="http://www.w3.org/1999/xlink" overflow="hidden"><defs><clipPath id="clip0"><path d="M83 95 878 95 878 603 83 603Z" fill-rule="evenodd" clip-rule="evenodd"/></clipPath></defs><g clip-path="url(#clip0)" transform="translate(-83 -95)"><path d="M384.567 246.446 470.382 333.272 468.248 335.381 382.433 248.554ZM471.461 330.096 474.588 339.661 465.06 336.423Z"/><rect x="403.5" y="339.5" width="142" height="73" stroke="#000000" stroke-miterlimit="8" fill="#EBECEC"/><text font-family="Arial,Arial_MSFontService,sans-serif" font-weight="400" font-size="21" transform="translate(454.265 358)"><tspan x="-28.9133" y="25">CIMgen</tspan><tspan x="-28.5" y="51"></tspan></text><rect x="763.5" y="97.5001" width="107" height="73" stroke="#000000" stroke-miterlimit="8" fill="#F1B3AB"/><text font-family="Arial,Arial_MSFontService,sans-serif" font-weight="400" font-size="24" transform="translate(781.735 127)">CIMpy<tspan x="-5.33331" y="29">classes</tspan></text><rect x="312.5" y="174.5" width="142" height="73" stroke="#000000" stroke-miterlimit="8" fill="#92D050"/><text font-family="Arial,Arial_MSFontService,sans-serif" font-weight="400" font-size="19" transform="translate(348.514 206)">CGMES<tspan x="-21.6667" y="23">RDF Schema</tspan></text><path d="M1.11582-1.00247 213.898 235.839 211.666 237.844-1.11582 1.00247ZM215.127 232.718 217.794 242.42 208.432 238.733Z" transform="matrix(1 0 0 -1 545.5 375.921)"/><text font-family="Arial,Arial_MSFontService,sans-serif" font-weight="400" font-size="19" transform="translate(483.692 442)">xml2dict<tspan x="-85.8905" y="0">chevron</tspan></text><rect x="86.5001" y="151.5" width="142" height="73" stroke="#000000" stroke-miterlimit="8" fill="#92D050"/><text font-family="Arial,Arial_MSFontService,sans-serif" font-weight="400" font-size="19" transform="translate(119.55 183)">Template<tspan x="-17.2" y="23">Python Class</tspan></text><path d="M229.6 186.481 398.732 369.032 396.531 371.071 227.4 188.519ZM399.914 365.894 402.729 375.554 393.312 372.01Z"/><rect x="84.5001" y="245.5" width="143" height="74" stroke="#000000" stroke-miterlimit="8" fill="#92D050"/><text font-family="Arial,Arial_MSFontService,sans-serif" font-weight="400" font-size="19" transform="translate(117.943 278)">Template<tspan x="-5.78001" y="23">C++ Class</tspan></text><path d="M228.204 281.176 397.414 371.113 396.006 373.762 226.796 283.825ZM397.498 367.76 403.333 375.957 393.274 375.707Z"/><rect x="764.5" y="204.5" width="108" height="73" stroke="#000000" stroke-miterlimit="8" fill="#F1B3AB"/><text font-family="Arial,Arial_MSFontService,sans-serif" font-weight="400" font-size="24" transform="translate(782.006 235)">CIM++ <tspan x="-4" y="29">classes</tspan></text><path d="M0.786802-1.27708 213.8 129.959 212.226 132.513-0.786802 1.27708ZM214.096 126.617 219.398 135.169 209.375 134.28Z" transform="matrix(1 0 0 -1 545.5 375.669)"/><rect x="86.5001" y="336.5" width="142" height="73" stroke="#000000" stroke-miterlimit="8" fill="#92D050"/><text font-family="Arial,Arial_MSFontService,sans-serif" font-weight="400" font-size="14" transform="translate(124.406 370)">Templates<tspan x="-28.58" y="16">C++ Deserialization</tspan></text><rect x="763.5" y="314.5" width="107" height="73" stroke="#000000" stroke-miterlimit="8" fill="#F1B3AB"/><text font-family="Arial,Arial_MSFontService,sans-serif" font-weight="400" font-size="16" transform="translate(792.402 347)">CIM++ <tspan x="-18" y="19">Deserializer</tspan></text><path d="M228.523 372 395.36 374.597 395.314 377.597 228.477 375ZM393.908 371.574 402.836 376.214 393.767 380.573Z"/><path d="M0.173626-1.48992 210.518 23.0225 210.171 26.0023-0.173626 1.48992ZM209.375 19.869 217.794 25.3805 208.334 28.8085Z" transform="matrix(1 0 0 -1 545.5 375.881)"/><rect x="87.5001" y="520.5" width="142" height="74" stroke="#000000" stroke-miterlimit="8" fill="#92D050"/><text font-family="Arial,Arial_MSFontService,sans-serif" font-weight="400" font-size="19" transform="translate(106.962 541)">Template for<tspan x="0.313332" y="23">HTML menu </tspan><tspan x="15.4667" y="45">template</tspan></text><path d="M1.08455-1.03622 169.304 175.028 167.134 177.1-1.08455 1.03622ZM170.437 171.871 173.4 181.487 163.929 178.088Z" transform="matrix(1 0 0 -1 229.5 557.987)"/><rect x="766.5" y="520.5" width="107" height="74" stroke="#000000" stroke-miterlimit="8" fill="#F1B3AB"/><text font-family="Arial,Arial_MSFontService,sans-serif" font-weight="400" font-size="16" transform="translate(794.363 544)">Pintura<tspan x="-18.3733" y="19">HTML menu </tspan><tspan x="-5.33331" y="38">template</tspan></text><path d="M546.452 375.341 761.658 552.068 759.754 554.386 544.548 377.659ZM762.402 548.798 766.502 557.987 756.691 555.753Z"/><rect x="484.5" y="172.5" width="142" height="73" stroke="#000000" stroke-miterlimit="8" fill="#92D050"/><text font-family="Arial,Arial_MSFontService,sans-serif" font-weight="400" font-size="19" transform="translate(537.561 204)">CIM<tspan x="-36.2467" y="23">XMI Schema</tspan></text><path d="M1.1474-0.966163 75.1581 86.9279 72.8633 88.8602-1.1474 0.966163ZM76.4868 83.8482 78.8416 93.6311 69.6024 89.6452Z" transform="matrix(-1 -8.74228e-08 -8.74228e-08 1 553.342 245.5)"/><rect x="763.5" y="423.5" width="107" height="74" stroke="#000000" stroke-miterlimit="8" fill="#F1B3AB"/><text font-family="Arial,Arial_MSFontService,sans-serif" font-weight="400" font-size="19" transform="translate(788.489 456)">CIM++ <tspan x="-10.92" y="23">Serializer</tspan></text><path d="M546.043 375.102 756.63 456.797 755.545 459.594 544.958 377.899ZM756.317 453.458 763.08 460.909 753.062 461.849Z"/><rect x="86.5001" y="427.5" width="142" height="73" stroke="#000000" stroke-miterlimit="8" fill="#92D050"/><text font-family="Arial,Arial_MSFontService,sans-serif" font-weight="400" font-size="16" transform="translate(124.793 460)">Template<tspan x="-28.3" y="19">C++ Serialization</tspan></text><path d="M0.67611-1.33898 168.317 83.3102 166.965 85.9881-0.67611 1.33898ZM168.33 79.956 174.336 88.0296 164.274 87.9899Z" transform="matrix(1 0 0 -1 228.5 464.53)"/></g></svg>
